<?xml version="1.0" standalone="no"?>
<!DOCTYPE svg PUBLIC "-//W3C//DTD SVG 20010904//EN"
 "http://www.w3.org/TR/2001/REC-SVG-20010904/DTD/svg10.dtd">
<svg version="1.0" xmlns="http://www.w3.org/2000/svg"
 width="700.000000pt" height="700.000000pt" viewBox="0 0 700.000000 700.000000"
 preserveAspectRatio="xMidYMid meet">
<metadata>
Created by potrace 1.11, written by Peter Selinger 2001-2013
</metadata>
<g transform="translate(0.000000,700.000000) scale(0.100000,-0.100000)"
fill="#000000" stroke="none">
<path d="M2710 5084 c-63 -36 -137 -78 -165 -93 -27 -16 -66 -37 -85 -48 -19
-11 -60 -34 -90 -51 -30 -17 -111 -62 -180 -101 -69 -39 -196 -110 -283 -158
l-157 -88 2 -925 c3 -921 3 -925 25 -982 29 -77 93 -166 151 -210 26 -20 85
-59 132 -86 266 -154 590 -343 625 -362 22 -13 60 -34 85 -48 25 -14 62 -36
82 -49 39 -24 68 -29 84 -14 9 9 373 219 474 274 30 16 62 35 70 41 8 7 29 18
45 26 17 8 53 28 80 45 28 17 59 35 70 41 133 73 273 158 270 165 -3 4 -36 25
-73 46 -37 21 -76 43 -87 50 -11 7 -27 15 -35 19 -8 4 -26 15 -40 24 -14 10
-45 28 -70 42 -124 69 -589 343 -620 365 -82 60 -153 165 -181 268 -10 39 -13
234 -13 962 -1 502 -1 913 -1 913 0 0 -52 -30 -115 -66z"/>
<path d="M3590 4855 c-272 -157 -505 -289 -517 -295 -23 -9 -32 -30 -14 -30 5
0 93 -49 196 -110 103 -60 189 -110 191 -110 2 0 27 -15 56 -33 29 -19 73 -45
98 -59 131 -73 349 -203 380 -226 106 -78 175 -195 188 -322 3 -30 6 -452 6
-936 l1 -882 29 15 c15 8 62 35 103 59 41 24 76 44 78 44 2 0 30 15 62 34 32
18 83 47 113 63 30 17 118 66 195 110 77 44 160 91 185 104 25 13 105 58 178
99 l132 75 -2 930 c-3 900 -4 931 -23 975 -64 147 -117 199 -327 319 -89 52
-179 104 -198 116 -29 19 -256 150 -415 240 -22 13 -71 42 -110 64 -38 23 -74
41 -80 41 -5 -1 -233 -129 -505 -285z"/>
</g>
</svg>
